<?xml version="1.0" encoding="UTF-8" standalone="no"?>
<!-- Created with Inkscape (http://www.inkscape.org/) -->

<svg
   xmlns:dc="http://purl.org/dc/elements/1.1/"
   xmlns:cc="http://creativecommons.org/ns#"
   xmlns:rdf="http://www.w3.org/1999/02/22-rdf-syntax-ns#"
   xmlns:svg="http://www.w3.org/2000/svg"
   xmlns="http://www.w3.org/2000/svg"
   xmlns:sodipodi="http://sodipodi.sourceforge.net/DTD/sodipodi-0.dtd"
   xmlns:inkscape="http://www.inkscape.org/namespaces/inkscape"
   width="35.57457mm"
   height="11.710492mm"
   viewBox="0 0 126.05162 41.49387"
   id="svg4610"
   version="1.1"
   inkscape:version="0.91 r13725"
   sodipodi:docname="BANK BRI logo with slogan.svg">
  <defs
     id="defs4612">
    <clipPath
       clipPathUnits="userSpaceOnUse"
       id="clipPath224">
      <path
         d="m 0,0 595.276,0 0,841.89 L 0,841.89 0,0 Z"
         id="path226"
         inkscape:connector-curvature="0" />
    </clipPath>
    <clipPath
       clipPathUnits="userSpaceOnUse"
       id="clipPath200">
      <path
         d="m 0,0 595.276,0 0,841.89 L 0,841.89 0,0 Z"
         id="path202"
         inkscape:connector-curvature="0" />
    </clipPath>
    <clipPath
       clipPathUnits="userSpaceOnUse"
       id="clipPath182">
      <path
         d="m 0,0 595.276,0 0,841.89 L 0,841.89 0,0 Z"
         id="path184"
         inkscape:connector-curvature="0" />
    </clipPath>
    <clipPath
       clipPathUnits="userSpaceOnUse"
       id="clipPath162">
      <path
         d="m 0,0 595.276,0 0,841.89 L 0,841.89 0,0 Z"
         id="path164"
         inkscape:connector-curvature="0" />
    </clipPath>
    <clipPath
       clipPathUnits="userSpaceOnUse"
       id="clipPath112">
      <path
         d="m 0,0 595.276,0 0,841.89 L 0,841.89 0,0 Z"
         id="path114"
         inkscape:connector-curvature="0" />
    </clipPath>
    <clipPath
       clipPathUnits="userSpaceOnUse"
       id="clipPath86">
      <path
         d="m 0,0 595.276,0 0,841.89 L 0,841.89 0,0 Z"
         id="path88"
         inkscape:connector-curvature="0" />
    </clipPath>
    <clipPath
       clipPathUnits="userSpaceOnUse"
       id="clipPath72">
      <path
         d="m 0,0 595.276,0 0,841.89 L 0,841.89 0,0 Z"
         id="path74"
         inkscape:connector-curvature="0" />
    </clipPath>
  </defs>
  <sodipodi:namedview
     id="base"
     pagecolor="#ffffff"
     bordercolor="#666666"
     borderopacity="1.0"
     inkscape:pageopacity="0.0"
     inkscape:pageshadow="2"
     inkscape:zoom="0.35"
     inkscape:cx="505.16866"
     inkscape:cy="-482.11021"
     inkscape:document-units="px"
     inkscape:current-layer="layer1"
     showgrid="false"
     fit-margin-top="0"
     fit-margin-left="0"
     fit-margin-right="0"
     fit-margin-bottom="0"
     inkscape:window-width="1366"
     inkscape:window-height="705"
     inkscape:window-x="-8"
     inkscape:window-y="-8"
     inkscape:window-maximized="1" />
  <metadata
     id="metadata4615">
    <rdf:RDF>
      <cc:Work
         rdf:about="">
        <dc:format>image/svg+xml</dc:format>
        <dc:type
           rdf:resource="http://purl.org/dc/dcmitype/StillImage" />
        <dc:title></dc:title>
      </cc:Work>
    </rdf:RDF>
  </metadata>
  <g
     inkscape:label="Layer 1"
     inkscape:groupmode="layer"
     id="layer1"
     transform="translate(617.31152,-8.7581244)">
    <g
       id="g64"
       transform="matrix(1.25,0,0,-1.25,-617.26704,48.249874)">
      <path
         d="m 0,0 0,5.038 1.191,0 1.583,-4.188 1.555,4.188 1.191,0 0,-5.038 -0.722,0 0,4.362 -0.014,0 L 3.115,0 2.405,0 0.736,4.362 0.722,4.362 0.722,0 0,0 Z"
         style="fill:#FCDEC0;fill-opacity:1;fill-rule:nonzero;stroke:none"
         id="path66"
         inkscape:connector-curvature="0" />
    </g>
    <g
       transform="matrix(1.25,0,0,-1.25,-708.8199,347.27287)"
       id="g68">
      <g
         id="g70"
         clip-path="url(#clipPath72)">
        <g
           id="g76"
           transform="translate(82.834396,240.0536)">
          <path
             d="m 0,0 0,-0.679 c -0.069,-0.026 -0.143,-0.053 -0.221,-0.081 -0.079,-0.029 -0.162,-0.054 -0.25,-0.077 -0.088,-0.024 -0.19,-0.043 -0.303,-0.058 -0.113,-0.016 -0.243,-0.022 -0.389,-0.022 -0.423,0 -0.778,0.081 -1.065,0.244 -0.286,0.162 -0.498,0.391 -0.637,0.689 -0.138,0.296 -0.207,0.649 -0.207,1.056 0,0.273 0.041,0.522 0.124,0.751 0.081,0.228 0.199,0.424 0.351,0.59 0.153,0.167 0.335,0.296 0.549,0.386 0.212,0.09 0.447,0.134 0.703,0.134 0.392,0 0.709,-0.088 0.95,-0.263 C -0.153,2.495 0.02,2.253 0.125,1.944 0.229,1.635 0.282,1.273 0.282,0.857 l -2.632,0 c 0,-0.233 0.055,-0.444 0.167,-0.632 0.112,-0.188 0.261,-0.334 0.447,-0.438 0.187,-0.104 0.387,-0.155 0.601,-0.155 0.203,0 0.418,0.041 0.646,0.123 C -0.26,-0.163 -0.097,-0.081 0,0 m -2.35,1.362 1.911,0 c 0,0.188 -0.038,0.36 -0.111,0.516 -0.073,0.158 -0.178,0.28 -0.317,0.37 -0.138,0.091 -0.303,0.135 -0.491,0.135 -0.21,0 -0.386,-0.049 -0.528,-0.148 C -2.029,2.135 -2.137,2.008 -2.21,1.856 -2.284,1.701 -2.33,1.536 -2.35,1.362"
             style="fill:#FCDEC0;fill-opacity:1;fill-rule:nonzero;stroke:none"
             id="path78"
             inkscape:connector-curvature="0" />
        </g>
      </g>
    </g>
    <path
       d="m -603.65865,41.480374 0.84625,0 0,6.77 -0.84625,0 0,-6.77 z"
       style="fill:#FCDEC0;fill-opacity:1;fill-rule:nonzero;stroke:none"
       id="path80"
       inkscape:connector-curvature="0" />
    <g
       transform="matrix(1.25,0,0,-1.25,-708.8199,347.27287)"
       id="g82">
      <g
         id="g84"
         clip-path="url(#clipPath86)">
        <g
           id="g90"
           transform="translate(86.280807,242.0618)">
          <path
             d="M 0,0 -0.035,0.579 C 0.354,0.81 0.758,0.925 1.178,0.925 1.695,0.925 2.072,0.8 2.307,0.548 2.542,0.298 2.66,-0.084 2.66,-0.598 l 0,-1.523 c 0,-0.338 0.009,-0.579 0.028,-0.722 l -0.633,0 0,0.481 -0.014,0 C 1.935,-2.51 1.787,-2.64 1.599,-2.755 1.41,-2.87 1.176,-2.926 0.898,-2.926 c -0.416,0 -0.745,0.095 -0.987,0.284 -0.243,0.19 -0.365,0.477 -0.365,0.86 0,0.22 0.053,0.408 0.159,0.565 0.107,0.157 0.247,0.283 0.42,0.378 0.174,0.094 0.359,0.162 0.553,0.205 0.196,0.041 0.389,0.062 0.582,0.062 0.303,0 0.543,-0.005 0.723,-0.014 0,0.329 -0.069,0.57 -0.207,0.727 C 1.638,0.298 1.404,0.375 1.072,0.375 0.879,0.375 0.686,0.342 0.493,0.274 0.299,0.207 0.136,0.116 0,0 m 1.983,-1.413 0,0.323 c -0.049,0 -0.12,0.002 -0.218,0.008 -0.097,0.004 -0.168,0.006 -0.217,0.006 -0.31,0 -0.6,-0.046 -0.872,-0.141 C 0.404,-1.312 0.269,-1.5 0.269,-1.78 c 0,-0.18 0.071,-0.324 0.215,-0.433 0.142,-0.109 0.301,-0.163 0.471,-0.163 0.218,0 0.404,0.041 0.56,0.125 0.155,0.083 0.272,0.198 0.35,0.344 0.078,0.146 0.118,0.311 0.118,0.494"
             style="fill:#FCDEC0;fill-opacity:1;fill-rule:nonzero;stroke:none"
             id="path92"
             inkscape:connector-curvature="0" />
        </g>
        <g
           id="g94"
           transform="translate(89.793106,237.6692)">
          <path
             d="m 0,0 0.043,0.555 c 0.114,-0.039 0.22,-0.058 0.319,-0.058 0.181,0 0.331,0.063 0.453,0.19 0.119,0.129 0.209,0.267 0.267,0.419 0.058,0.152 0.087,0.253 0.087,0.301 0,0.024 -0.006,0.056 -0.018,0.094 C 1.138,1.538 1.121,1.585 1.099,1.643 1.076,1.7 1.058,1.752 1.041,1.797 l -1.251,3.437 0.745,0 0.988,-3.054 0.015,0 1.011,3.054 0.686,0 L 1.878,1.472 C 1.754,1.128 1.645,0.86 1.55,0.667 1.456,0.474 1.321,0.305 1.143,0.163 0.966,0.02 0.738,-0.052 0.462,-0.052 0.336,-0.052 0.182,-0.035 0,0"
             style="fill:#FCDEC0;fill-opacity:1;fill-rule:nonzero;stroke:none"
             id="path96"
             inkscape:connector-curvature="0" />
        </g>
        <g
           id="g98"
           transform="translate(93.947693,242.0618)">
          <path
             d="M 0,0 -0.035,0.579 C 0.353,0.81 0.758,0.925 1.178,0.925 1.696,0.925 2.071,0.8 2.306,0.548 2.541,0.298 2.66,-0.084 2.66,-0.598 l 0,-1.523 c 0,-0.338 0.009,-0.579 0.028,-0.722 l -0.634,0 0,0.481 -0.013,0 C 1.935,-2.51 1.787,-2.64 1.599,-2.755 1.41,-2.87 1.176,-2.926 0.898,-2.926 c -0.416,0 -0.745,0.095 -0.988,0.284 -0.243,0.19 -0.363,0.477 -0.363,0.86 0,0.22 0.052,0.408 0.158,0.565 0.107,0.157 0.247,0.283 0.421,0.378 0.173,0.094 0.358,0.162 0.553,0.205 0.195,0.041 0.389,0.062 0.581,0.062 0.302,0 0.544,-0.005 0.723,-0.014 0,0.329 -0.069,0.57 -0.207,0.727 C 1.639,0.298 1.404,0.375 1.072,0.375 0.878,0.375 0.686,0.342 0.492,0.274 0.299,0.207 0.136,0.116 0,0 m 1.983,-1.413 0,0.323 c -0.049,0 -0.121,0.002 -0.218,0.008 -0.096,0.004 -0.168,0.006 -0.216,0.006 -0.311,0 -0.601,-0.046 -0.873,-0.141 C 0.404,-1.312 0.269,-1.5 0.269,-1.78 c 0,-0.18 0.07,-0.324 0.215,-0.433 0.143,-0.109 0.3,-0.163 0.471,-0.163 0.218,0 0.404,0.041 0.56,0.125 0.154,0.083 0.272,0.198 0.351,0.344 0.078,0.146 0.117,0.311 0.117,0.494"
             style="fill:#FCDEC0;fill-opacity:1;fill-rule:nonzero;stroke:none"
             id="path100"
             inkscape:connector-curvature="0" />
        </g>
        <g
           id="g102"
           transform="translate(97.777801,239.2184)">
          <path
             d="m 0,0 0,3.685 0.655,0 0,-0.589 0.014,0 C 0.768,3.302 0.928,3.465 1.151,3.587 1.373,3.708 1.615,3.768 1.876,3.768 2.341,3.768 2.688,3.632 2.915,3.359 3.142,3.086 3.256,2.695 3.256,2.188 l 0,-2.188 -0.677,0 0,1.905 C 2.579,2.349 2.521,2.673 2.405,2.881 2.289,3.089 2.086,3.201 1.796,3.219 1.423,3.219 1.143,3.084 0.956,2.813 0.77,2.542 0.677,2.171 0.677,1.704 L 0.677,0 0,0 Z"
             style="fill:#FCDEC0;fill-opacity:1;fill-rule:nonzero;stroke:none"
             id="path104"
             inkscape:connector-curvature="0" />
        </g>
      </g>
    </g>
    <path
       d="m -580.05365,42.617874 -0.94875,0 0,-0.94875 0.94875,0 0,0.94875 z m -0.89375,1.025 0.84,0 0,4.60625 -0.84,0 0,-4.60625 z"
       style="fill:#FCDEC0;fill-opacity:1;fill-rule:nonzero;stroke:none"
       id="path106"
       inkscape:connector-curvature="0" />
    <g
       transform="matrix(1.25,0,0,-1.25,-708.8199,347.27287)"
       id="g108">
      <g
         id="g110"
         clip-path="url(#clipPath112)">
        <g
           id="g116"
           transform="translate(106.29041,239.2184)">
          <path
             d="m 0,0 0,5.038 1.485,0 C 1.858,5.038 2.208,4.984 2.534,4.871 2.859,4.759 3.145,4.596 3.39,4.381 3.635,4.166 3.826,3.904 3.962,3.597 4.098,3.29 4.166,2.945 4.166,2.564 4.166,2.145 4.105,1.776 3.982,1.455 3.861,1.136 3.684,0.868 3.452,0.651 3.219,0.435 2.938,0.271 2.607,0.164 2.277,0.055 1.903,0 1.485,0 L 0,0 Z m 0.722,4.407 0,-3.776 0.757,0 c 1.286,0 1.928,0.636 1.928,1.904 0,0.382 -0.081,0.715 -0.24,0.998 -0.16,0.283 -0.38,0.499 -0.66,0.65 -0.279,0.15 -0.593,0.224 -0.941,0.224 l -0.844,0 z"
             style="fill:#FCDEC0;fill-opacity:1;fill-rule:nonzero;stroke:none"
             id="path118"
             inkscape:connector-curvature="0" />
        </g>
        <g
           id="g120"
           transform="translate(114.3257,240.0536)">
          <path
             d="M 0,0 0,-0.679 C -0.07,-0.705 -0.143,-0.732 -0.222,-0.76 -0.3,-0.789 -0.383,-0.814 -0.471,-0.837 -0.56,-0.861 -0.66,-0.88 -0.773,-0.895 c -0.114,-0.016 -0.244,-0.022 -0.39,-0.022 -0.423,0 -0.779,0.081 -1.065,0.244 -0.286,0.162 -0.499,0.391 -0.637,0.689 -0.138,0.296 -0.208,0.649 -0.208,1.056 0,0.273 0.042,0.522 0.124,0.751 0.082,0.228 0.2,0.424 0.352,0.59 0.153,0.167 0.335,0.296 0.548,0.386 0.214,0.09 0.447,0.134 0.704,0.134 0.392,0 0.708,-0.088 0.95,-0.263 C -0.154,2.495 0.02,2.253 0.124,1.944 0.229,1.635 0.282,1.273 0.282,0.857 l -2.632,0 c 0,-0.233 0.055,-0.444 0.167,-0.632 0.112,-0.188 0.261,-0.334 0.447,-0.438 0.186,-0.104 0.386,-0.155 0.6,-0.155 0.203,0 0.418,0.041 0.646,0.123 C -0.261,-0.163 -0.098,-0.081 0,0 m -2.35,1.362 1.911,0 c 0,0.188 -0.037,0.36 -0.111,0.516 -0.073,0.158 -0.18,0.28 -0.316,0.37 -0.139,0.091 -0.303,0.135 -0.493,0.135 -0.209,0 -0.384,-0.049 -0.528,-0.148 C -2.03,2.135 -2.138,2.008 -2.211,1.856 -2.283,1.701 -2.33,1.536 -2.35,1.362"
             style="fill:#FCDEC0;fill-opacity:1;fill-rule:nonzero;stroke:none"
             id="path122"
             inkscape:connector-curvature="0" />
        </g>
        <g
           id="g124"
           transform="translate(115.537,239.2184)">
          <path
             d="m 0,0 0,3.685 0.656,0 0,-0.589 0.013,0 c 0.099,0.206 0.26,0.369 0.482,0.491 0.222,0.121 0.464,0.181 0.726,0.181 0.465,0 0.812,-0.136 1.038,-0.409 C 3.143,3.086 3.256,2.695 3.256,2.188 L 3.256,0 2.58,0 l 0,1.905 C 2.58,2.349 2.522,2.673 2.405,2.881 2.289,3.089 2.086,3.201 1.797,3.219 1.424,3.219 1.143,3.084 0.956,2.813 0.77,2.542 0.677,2.171 0.677,1.704 L 0.677,0 0,0 Z"
             style="fill:#FCDEC0;fill-opacity:1;fill-rule:nonzero;stroke:none"
             id="path126"
             inkscape:connector-curvature="0" />
        </g>
        <g
           id="g128"
           transform="translate(123.2249,242.9037)">
          <path
             d="M 0,0 0,-3.525 C 0,-3.809 -0.037,-4.059 -0.111,-4.276 -0.185,-4.491 -0.3,-4.675 -0.455,-4.826 -0.61,-4.977 -0.808,-5.092 -1.049,-5.17 -1.289,-5.248 -1.573,-5.287 -1.9,-5.287 c -0.207,0 -0.406,0.017 -0.6,0.053 -0.192,0.035 -0.434,0.102 -0.723,0.199 l 0.072,0.629 c 0.275,-0.124 0.505,-0.209 0.691,-0.258 0.186,-0.05 0.4,-0.074 0.641,-0.074 0.355,0 0.634,0.112 0.838,0.336 0.203,0.225 0.304,0.534 0.304,0.928 l 0,0.361 -0.014,0 c -0.14,-0.186 -0.321,-0.327 -0.543,-0.425 -0.222,-0.099 -0.453,-0.147 -0.694,-0.147 -0.337,0 -0.624,0.083 -0.863,0.247 -0.238,0.166 -0.416,0.386 -0.535,0.663 -0.119,0.277 -0.178,0.578 -0.178,0.902 0,0.33 0.062,0.644 0.186,0.943 0.124,0.299 0.311,0.543 0.56,0.73 0.25,0.189 0.55,0.283 0.902,0.283 0.596,0 1,-0.212 1.214,-0.635 l 0.017,0 0,0.552 L 0,0 Z m -1.754,-3.135 c 0.207,0 0.393,0.055 0.555,0.166 0.165,0.113 0.292,0.263 0.385,0.455 0.091,0.191 0.137,0.4 0.137,0.626 0,0.261 -0.04,0.499 -0.12,0.716 -0.081,0.216 -0.203,0.388 -0.366,0.515 -0.162,0.128 -0.359,0.19 -0.591,0.19 -0.321,0 -0.571,-0.14 -0.754,-0.421 -0.183,-0.281 -0.275,-0.598 -0.275,-0.948 0,-0.234 0.043,-0.45 0.126,-0.647 0.084,-0.199 0.203,-0.356 0.36,-0.474 0.157,-0.12 0.338,-0.178 0.543,-0.178"
             style="fill:#FCDEC0;fill-opacity:1;fill-rule:nonzero;stroke:none"
             id="path130"
             inkscape:connector-curvature="0" />
        </g>
        <g
           id="g132"
           transform="translate(124.60629,242.0618)">
          <path
             d="M 0,0 -0.035,0.579 C 0.353,0.81 0.757,0.925 1.178,0.925 1.695,0.925 2.071,0.8 2.306,0.548 2.541,0.298 2.66,-0.084 2.66,-0.598 l 0,-1.523 c 0,-0.338 0.009,-0.579 0.028,-0.722 l -0.634,0 0,0.481 -0.014,0 C 1.935,-2.51 1.787,-2.64 1.599,-2.755 1.409,-2.87 1.176,-2.926 0.897,-2.926 c -0.416,0 -0.744,0.095 -0.986,0.284 -0.243,0.19 -0.365,0.477 -0.365,0.86 0,0.22 0.053,0.408 0.159,0.565 0.107,0.157 0.247,0.283 0.421,0.378 0.173,0.094 0.357,0.162 0.552,0.205 0.196,0.041 0.389,0.062 0.581,0.062 0.304,0 0.545,-0.005 0.724,-0.014 0,0.329 -0.07,0.57 -0.207,0.727 C 1.638,0.298 1.403,0.375 1.071,0.375 0.878,0.375 0.685,0.342 0.493,0.274 0.299,0.207 0.135,0.116 0,0 m 1.983,-1.413 0,0.323 c -0.049,0 -0.121,0.002 -0.218,0.008 -0.097,0.004 -0.169,0.006 -0.217,0.006 -0.309,0 -0.6,-0.046 -0.872,-0.141 C 0.404,-1.312 0.268,-1.5 0.268,-1.78 c 0,-0.18 0.071,-0.324 0.215,-0.433 0.143,-0.109 0.301,-0.163 0.471,-0.163 0.218,0 0.405,0.041 0.56,0.125 0.155,0.083 0.273,0.198 0.351,0.344 0.078,0.146 0.118,0.311 0.118,0.494"
             style="fill:#FCDEC0;fill-opacity:1;fill-rule:nonzero;stroke:none"
             id="path134"
             inkscape:connector-curvature="0" />
        </g>
        <g
           id="g136"
           transform="translate(128.43491,239.2184)">
          <path
             d="m 0,0 0,3.685 0.656,0 0,-0.589 0.015,0 C 0.769,3.302 0.93,3.465 1.152,3.587 1.374,3.708 1.617,3.768 1.878,3.768 2.343,3.768 2.69,3.632 2.917,3.359 3.144,3.086 3.257,2.695 3.257,2.188 L 3.257,0 2.58,0 l 0,1.905 C 2.58,2.349 2.522,2.673 2.406,2.881 2.29,3.089 2.087,3.201 1.798,3.219 1.425,3.219 1.144,3.084 0.958,2.813 0.771,2.542 0.678,2.171 0.678,1.704 L 0.678,0 0,0 Z"
             style="fill:#FCDEC0;fill-opacity:1;fill-rule:nonzero;stroke:none"
             id="path138"
             inkscape:connector-curvature="0" />
        </g>
        <g
           id="g140"
           transform="translate(137.3448,244.16969)">
          <path
             d="m 0,0 -0.099,-0.664 c -0.203,0.08 -0.366,0.136 -0.491,0.166 -0.123,0.03 -0.275,0.045 -0.454,0.045 -0.242,0 -0.448,-0.052 -0.62,-0.157 -0.172,-0.103 -0.258,-0.275 -0.258,-0.515 0,-0.209 0.069,-0.363 0.206,-0.457 0.138,-0.097 0.401,-0.244 0.792,-0.443 0.391,-0.199 0.682,-0.405 0.873,-0.622 0.192,-0.215 0.288,-0.51 0.288,-0.885 0,-0.507 -0.17,-0.884 -0.508,-1.131 -0.34,-0.247 -0.781,-0.37 -1.325,-0.37 -0.263,0 -0.604,0.07 -1.027,0.209 l 0.071,0.668 c 0.394,-0.165 0.741,-0.245 1.043,-0.245 0.152,0 0.303,0.029 0.455,0.089 0.151,0.057 0.278,0.148 0.379,0.273 0.101,0.122 0.152,0.276 0.152,0.461 0,0.248 -0.083,0.435 -0.249,0.561 -0.167,0.125 -0.434,0.278 -0.799,0.454 -0.366,0.176 -0.643,0.36 -0.83,0.553 -0.187,0.192 -0.28,0.465 -0.28,0.816 0,0.289 0.069,0.537 0.209,0.744 0.139,0.207 0.331,0.364 0.577,0.47 0.245,0.106 0.52,0.157 0.824,0.157 C -0.697,0.177 -0.34,0.118 0,0"
             style="fill:#FCDEC0;fill-opacity:1;fill-rule:nonzero;stroke:none"
             id="path142"
             inkscape:connector-curvature="0" />
        </g>
        <g
           id="g144"
           transform="translate(141.3531,240.0536)">
          <path
             d="M 0,0 0,-0.679 C -0.07,-0.705 -0.144,-0.732 -0.222,-0.76 -0.3,-0.789 -0.383,-0.814 -0.472,-0.837 -0.561,-0.861 -0.661,-0.88 -0.775,-0.895 c -0.113,-0.016 -0.243,-0.022 -0.389,-0.022 -0.423,0 -0.778,0.081 -1.064,0.244 -0.287,0.162 -0.499,0.391 -0.638,0.689 -0.137,0.296 -0.207,0.649 -0.207,1.056 0,0.273 0.041,0.522 0.124,0.751 0.082,0.228 0.199,0.424 0.351,0.59 0.153,0.167 0.336,0.296 0.548,0.386 0.214,0.09 0.448,0.134 0.705,0.134 0.391,0 0.708,-0.088 0.949,-0.263 C -0.153,2.495 0.019,2.253 0.124,1.944 0.229,1.635 0.281,1.273 0.281,0.857 l -2.632,0 c 0,-0.233 0.055,-0.444 0.168,-0.632 0.112,-0.188 0.26,-0.334 0.447,-0.438 0.186,-0.104 0.385,-0.155 0.6,-0.155 0.202,0 0.418,0.041 0.646,0.123 C -0.261,-0.163 -0.099,-0.081 0,0 m -2.351,1.362 1.911,0 c 0,0.188 -0.038,0.36 -0.11,0.516 -0.073,0.158 -0.179,0.28 -0.317,0.37 -0.139,0.091 -0.303,0.135 -0.492,0.135 -0.209,0 -0.385,-0.049 -0.529,-0.148 C -2.03,2.135 -2.138,2.008 -2.212,1.856 -2.284,1.701 -2.331,1.536 -2.351,1.362"
             style="fill:#FCDEC0;fill-opacity:1;fill-rule:nonzero;stroke:none"
             id="path146"
             inkscape:connector-curvature="0" />
        </g>
        <g
           id="g148"
           transform="translate(144.51511,242.9037)">
          <path
             d="m 0,0 0,-0.549 -0.974,0 0,-2.012 c 0,-0.205 0.055,-0.366 0.163,-0.483 0.108,-0.116 0.244,-0.174 0.407,-0.174 0.173,0 0.328,0.043 0.461,0.13 l 0,-0.58 c -0.239,-0.066 -0.432,-0.099 -0.576,-0.099 -0.36,0 -0.639,0.088 -0.835,0.266 -0.198,0.176 -0.297,0.444 -0.297,0.801 l 0,2.151 -0.83,0 0,0.549 0.83,0 0,0.852 0.677,0.217 L -0.974,0 0,0 Z"
             style="fill:#FCDEC0;fill-opacity:1;fill-rule:nonzero;stroke:none"
             id="path150"
             inkscape:connector-curvature="0" />
        </g>
        <g
           id="g152"
           transform="translate(148.64931,242.9037)">
          <path
             d="m 0,0 0,-3.685 -0.656,0 0,0.59 -0.014,0 c -0.067,-0.139 -0.162,-0.259 -0.287,-0.36 -0.123,-0.101 -0.265,-0.179 -0.424,-0.232 -0.161,-0.053 -0.325,-0.08 -0.495,-0.08 -0.312,0 -0.571,0.062 -0.776,0.187 -0.205,0.124 -0.357,0.304 -0.456,0.541 -0.099,0.235 -0.149,0.519 -0.149,0.852 l 0,2.187 0.677,0 0,-1.904 c 0,-0.294 0.025,-0.534 0.073,-0.722 0.05,-0.188 0.131,-0.331 0.245,-0.429 0.113,-0.097 0.268,-0.152 0.463,-0.163 0.376,0 0.655,0.136 0.842,0.406 0.186,0.271 0.281,0.641 0.281,1.109 L -0.676,0 0,0 Z"
             style="fill:#FCDEC0;fill-opacity:1;fill-rule:nonzero;stroke:none"
             id="path154"
             inkscape:connector-curvature="0" />
        </g>
      </g>
    </g>
    <path
       d="m -521.43615,41.480374 0.84625,0 0,6.77 -0.84625,0 0,-6.77 z"
       style="fill:#FCDEC0;fill-opacity:1;fill-rule:nonzero;stroke:none"
       id="path156"
       inkscape:connector-curvature="0" />
    <g
       transform="matrix(1.25,0,0,-1.25,-708.8199,347.27287)"
       id="g158">
      <g
         id="g160"
         clip-path="url(#clipPath162)">
        <g
           id="g166"
           transform="translate(155.1107,242.9037)">
          <path
             d="m 0,0 0,-3.685 -0.656,0 0,0.59 -0.014,0 c -0.067,-0.139 -0.163,-0.259 -0.286,-0.36 -0.125,-0.101 -0.266,-0.179 -0.426,-0.232 -0.159,-0.053 -0.324,-0.08 -0.495,-0.08 -0.311,0 -0.57,0.062 -0.774,0.187 -0.207,0.124 -0.358,0.304 -0.457,0.541 -0.099,0.235 -0.148,0.519 -0.148,0.852 l 0,2.187 0.677,0 0,-1.904 c 0,-0.294 0.023,-0.534 0.073,-0.722 0.048,-0.188 0.13,-0.331 0.243,-0.429 0.114,-0.097 0.269,-0.152 0.464,-0.163 0.374,0 0.655,0.136 0.843,0.406 0.186,0.271 0.279,0.641 0.279,1.109 L -0.677,0 0,0 Z"
             style="fill:#FCDEC0;fill-opacity:1;fill-rule:nonzero;stroke:none"
             id="path168"
             inkscape:connector-curvature="0" />
        </g>
        <g
           id="g170"
           transform="translate(155.9758,239.33929)">
          <path
             d="M 0,0 0.037,0.607 C 0.162,0.527 0.306,0.464 0.469,0.417 0.632,0.369 0.77,0.346 0.882,0.346 c 0.182,0 0.342,0.042 0.483,0.128 0.139,0.085 0.209,0.217 0.209,0.398 0,0.147 -0.059,0.261 -0.176,0.344 C 1.281,1.297 1.086,1.407 0.809,1.544 0.533,1.682 0.326,1.82 0.187,1.961 0.049,2.1 -0.021,2.286 -0.021,2.516 c 0,0.244 0.056,0.453 0.17,0.623 0.113,0.169 0.267,0.297 0.463,0.382 0.196,0.084 0.418,0.126 0.665,0.126 0.239,0 0.521,-0.047 0.846,-0.145 L 2.065,2.911 C 1.995,2.954 1.882,2.996 1.724,3.037 1.565,3.079 1.44,3.098 1.35,3.098 1.164,3.098 1.01,3.06 0.886,2.983 0.763,2.906 0.702,2.795 0.702,2.652 0.702,2.488 0.758,2.368 0.871,2.289 0.985,2.209 1.18,2.103 1.458,1.975 1.735,1.845 1.945,1.707 2.086,1.56 2.226,1.414 2.296,1.206 2.296,0.943 2.296,0.692 2.236,0.479 2.117,0.309 1.998,0.136 1.84,0.008 1.643,-0.077 1.447,-0.161 1.236,-0.203 1.012,-0.203 0.588,-0.203 0.252,-0.136 0,0"
             style="fill:#FCDEC0;fill-opacity:1;fill-rule:nonzero;stroke:none"
             id="path172"
             inkscape:connector-curvature="0" />
        </g>
      </g>
    </g>
    <g
       id="g174"
       transform="matrix(1.25,0,0,-1.25,-507.26615,48.249874)">
      <path
         d="m 0,0 0,5.038 0.722,0 0,-2.106 2.414,0 0,2.106 0.722,0 0,-5.038 -0.722,0 0,2.302 -2.414,0 L 0.722,0 0,0 Z"
         style="fill:#FCDEC0;fill-opacity:1;fill-rule:nonzero;stroke:none"
         id="path176"
         inkscape:connector-curvature="0" />
    </g>
    <g
       transform="matrix(1.25,0,0,-1.25,-708.8199,347.27287)"
       id="g178">
      <g
         id="g180"
         clip-path="url(#clipPath182)">
        <g
           id="g186"
           transform="translate(166.5854,242.0618)">
          <path
             d="M 0,0 -0.036,0.579 C 0.353,0.81 0.756,0.925 1.177,0.925 1.695,0.925 2.072,0.8 2.305,0.548 2.541,0.298 2.659,-0.084 2.659,-0.598 l 0,-1.523 c 0,-0.338 0.009,-0.579 0.028,-0.722 l -0.633,0 0,0.481 -0.014,0 C 1.934,-2.51 1.787,-2.64 1.598,-2.755 1.409,-2.87 1.176,-2.926 0.897,-2.926 c -0.416,0 -0.745,0.095 -0.988,0.284 -0.242,0.19 -0.364,0.477 -0.364,0.86 0,0.22 0.053,0.408 0.159,0.565 0.108,0.157 0.248,0.283 0.421,0.378 0.173,0.094 0.358,0.162 0.552,0.205 0.197,0.041 0.39,0.062 0.582,0.062 0.303,0 0.544,-0.005 0.724,-0.014 0,0.329 -0.07,0.57 -0.208,0.727 C 1.638,0.298 1.403,0.375 1.071,0.375 0.878,0.375 0.685,0.342 0.492,0.274 0.299,0.207 0.136,0.116 0,0 m 1.983,-1.413 0,0.323 c -0.049,0 -0.121,0.002 -0.218,0.008 -0.097,0.004 -0.169,0.006 -0.218,0.006 -0.309,0 -0.6,-0.046 -0.872,-0.141 C 0.403,-1.312 0.267,-1.5 0.267,-1.78 c 0,-0.18 0.072,-0.324 0.216,-0.433 0.143,-0.109 0.301,-0.163 0.471,-0.163 0.217,0 0.405,0.041 0.56,0.125 0.155,0.083 0.272,0.198 0.351,0.344 0.078,0.146 0.118,0.311 0.118,0.494"
             style="fill:#FCDEC0;fill-opacity:1;fill-rule:nonzero;stroke:none"
             id="path188"
             inkscape:connector-curvature="0" />
        </g>
        <g
           id="g190"
           transform="translate(172.3665,242.9037)">
          <path
             d="m 0,0 0,-0.549 -0.975,0 0,-2.012 c 0,-0.205 0.055,-0.366 0.163,-0.483 0.108,-0.116 0.244,-0.174 0.407,-0.174 0.174,0 0.327,0.043 0.461,0.13 l 0,-0.58 c -0.239,-0.066 -0.431,-0.099 -0.576,-0.099 -0.359,0 -0.638,0.088 -0.835,0.266 -0.198,0.176 -0.296,0.444 -0.296,0.801 l 0,2.151 -0.831,0 0,0.549 0.831,0 0,0.852 0.676,0.217 L -0.975,0 0,0 Z"
             style="fill:#FCDEC0;fill-opacity:1;fill-rule:nonzero;stroke:none"
             id="path192"
             inkscape:connector-curvature="0" />
        </g>
      </g>
    </g>
    <path
       d="m -491.2599,42.617874 -0.94875,0 0,-0.94875 0.94875,0 0,0.94875 z m -0.89375,1.025 0.84,0 0,4.60625 -0.84,0 0,-4.60625 z"
       style="fill:#FCDEC0;fill-opacity:1;fill-rule:nonzero;stroke:none"
       id="path194"
       inkscape:connector-curvature="0" />
    <g
       transform="matrix(1.25,0,0,-1.25,-708.8199,347.27287)"
       id="g196">
      <g
         id="g198"
         clip-path="url(#clipPath200)">
        <g
           id="g204"
           transform="translate(100.48061,264.8557)">
          <path
             d="m 0,0 5.432,0 c 2.2,0 3.84,-0.964 3.84,-2.995 0,-1.489 -0.761,-2.318 -2.081,-2.758 l 0,-0.034 c 1.574,-0.322 2.386,-1.168 2.386,-2.606 0,-2.826 -2.488,-3.418 -4.603,-3.418 L 0,-11.811 0,0 Z m 3.147,-4.671 0.88,0 c 1.032,0 2.099,0.254 2.099,1.253 0,1.082 -1.016,1.184 -2.066,1.184 l -0.913,0 0,-2.437 z m 0,-4.907 0.931,0 c 1.151,0 2.352,0.17 2.352,1.371 0,1.286 -1.235,1.404 -2.319,1.404 l -0.964,0 0,-2.775 z"
             style="fill:#FCDEC0;fill-opacity:1;fill-rule:nonzero;stroke:none"
             id="path206"
             inkscape:connector-curvature="0" />
        </g>
      </g>
    </g>
    <g
       id="g208"
       transform="matrix(1.25,0,0,-1.25,-566.08415,16.203244)">
      <path
         d="m 0,0 3.858,0 4.552,-11.811 -3.452,0 -0.88,2.521 -4.433,0 -0.931,-2.521 -3.198,0 L 0,0 Z m 1.929,-2.437 -0.034,0 -1.523,-4.62 2.962,0 -1.405,4.62 z"
         style="fill:#FCDEC0;fill-opacity:1;fill-rule:nonzero;stroke:none"
         id="path210"
         inkscape:connector-curvature="0" />
    </g>
    <g
       id="g212"
       transform="matrix(1.25,0,0,-1.25,-555.02428,16.203244)">
      <path
         d="m 0,0 4.01,0 3.994,-8.021 0.033,0 -0.05,8.021 2.877,0 0,-11.811 -3.91,0 -4.128,8.072 -0.033,0 0.1,-8.072 -2.893,0 L 0,0 Z"
         style="fill:#FCDEC0;fill-opacity:1;fill-rule:nonzero;stroke:none"
         id="path214"
         inkscape:connector-curvature="0" />
    </g>
    <g
       id="g216"
       transform="matrix(1.25,0,0,-1.25,-540.1094,16.203244)">
      <path
         d="m 0,0 3.147,0 0,-4.823 0.034,0 3.553,4.823 3.79,0 -4.365,-5.499 4.704,-6.312 -4.011,0 -3.671,5.364 -0.034,0 0,-5.364 -3.147,0 L 0,0 Z"
         style="fill:#FCDEC0;fill-opacity:1;fill-rule:nonzero;stroke:none"
         id="path218"
         inkscape:connector-curvature="0" />
    </g>
    <g
       transform="matrix(1.25,0,0,-1.25,-708.8199,347.27287)"
       id="g220">
      <g
         id="g222"
         clip-path="url(#clipPath224)">
        <g
           id="g228"
           transform="translate(149.7343,264.8557)">
          <path
             d="m 0,0 5.432,0 c 2.199,0 3.841,-0.964 3.841,-2.995 0,-1.489 -0.761,-2.318 -2.081,-2.758 l 0,-0.034 c 1.574,-0.322 2.385,-1.168 2.385,-2.606 0,-2.826 -2.487,-3.418 -4.602,-3.418 L 0,-11.811 0,0 Z m 3.147,-4.671 0.88,0 c 1.033,0 2.098,0.254 2.098,1.253 0,1.082 -1.014,1.184 -2.064,1.184 l -0.914,0 0,-2.437 z m 0,-4.907 0.931,0 c 1.15,0 2.352,0.17 2.352,1.371 0,1.286 -1.235,1.404 -2.318,1.404 l -0.965,0 0,-2.775 z"
             style="fill:#FCDEC0;fill-opacity:1;fill-rule:nonzero;stroke:none"
             id="path230"
             inkscape:connector-curvature="0" />
        </g>
        <g
           id="g232"
           transform="translate(160.00951,264.8557)">
          <path
             d="m 0,0 5.618,0 c 2.098,0 3.807,-0.948 3.807,-2.979 0,-1.573 -0.744,-2.622 -2.267,-2.977 l 0,-0.034 C 8.172,-6.261 8.24,-7.158 8.833,-8.596 l 1.15,-3.215 -3.282,0 -0.677,2.131 c -0.643,2.031 -1.05,2.54 -2.217,2.54 l -0.66,0 0,-4.671 -3.147,0 L 0,0 Z m 3.147,-4.907 0.829,0 c 1.016,0 2.302,0.034 2.302,1.371 0,1.099 -1.1,1.302 -2.302,1.302 l -0.829,0 0,-2.673 z"
             style="fill:#FCDEC0;fill-opacity:1;fill-rule:nonzero;stroke:none"
             id="path234"
             inkscape:connector-curvature="0" />
        </g>
      </g>
    </g>
    <path
       d="m -495.2449,16.202874 3.93375,0 0,14.76375 -3.93375,0 0,-14.76375 z"
       style="fill:#FCDEC0;fill-opacity:1;fill-rule:nonzero;stroke:none"
       id="path236"
       inkscape:connector-curvature="0" />
    <g
       id="g246"
       transform="matrix(1.25,0,0,-1.25,-592.19652,8.7581244)">
      <path
         d="m 0,0 -16.471,0 c -2,0 -3.621,-1.661 -3.621,-3.71 l 0,-0.039 0,-16.273 c 0,-2.029 1.591,-3.679 3.565,-3.709 l 16.518,0 c 2,0 3.622,1.66 3.622,3.709 L 3.62,-3.71 C 3.62,-1.661 2,0 0,0 m -14.514,-21.83 -0.898,-0.01 c -1.088,0 -1.97,0.894 -1.97,1.997 l -0.005,0.157 0,15.064 0.006,0.812 c 0.041,1.067 0.852,1.925 1.913,1.925 l 1.827,0 c 1.656,0 2.998,-1.44 2.998,-3.137 0,-0.84 -0.329,-1.602 -0.862,-2.156 l -4.661,-4.73 4.369,-4.449 c 0.563,-0.581 0.903,-1.343 0.903,-2.178 0,-1.82 -1.62,-3.295 -3.62,-3.295 m 13.431,0.015 -8.145,0.003 c 0,0 0.941,2.035 0.941,3.295 0,1.537 -0.513,2.909 -1.317,3.817 l -2.786,2.84 2.843,2.938 c 0.847,0.795 1.409,2.207 1.409,3.816 0,1.274 -0.352,2.402 -0.919,3.221 l 1.973,0 c 1.656,0 2.999,-1.44 2.999,-3.137 0,-0.84 -0.329,-1.602 -0.862,-2.156 l -4.572,-4.681 9.496,-9.683 c -0.301,-0.189 -0.68,-0.273 -1.06,-0.273 m 1.989,3.023 -6.805,6.936 3.241,3.294 c 0.659,0.825 1.078,2.067 1.078,3.456 0,1.282 -0.357,2.439 -0.929,3.258 l 1.45,-0.044 c 1.088,0 1.97,-0.894 1.97,-1.997 L 0.906,-18.792 Z"
         style="fill:#FCDEC0;fill-opacity:1;fill-rule:nonzero;stroke:none"
         id="path248"
         inkscape:connector-curvature="0" />
    </g>
  </g>
</svg>
